<svg width="3791" height="825" viewBox="0 0 3791 825" fill="none" xmlns="http://www.w3.org/2000/svg">
<path d="M613.936 346.423H467.608C463.917 346.423 460.522 348.445 458.764 351.69L297.902 648.528C296.232 651.611 296.287 655.341 298.048 658.373L368.021 778.86C371.919 785.573 381.63 785.528 385.466 778.779L622.682 361.454C626.494 354.748 621.65 346.423 613.936 346.423Z" fill="white"/>
<path d="M311.908 272.412L248.729 156.887C245.063 150.183 249.914 142 257.555 142H728.738C736.492 142 741.331 150.403 737.438 157.11L670.382 272.635C668.582 275.737 665.267 277.645 661.682 277.645H320.734C317.057 277.645 313.673 275.639 311.908 272.412Z" fill="white"/>
<path d="M242.56 566.621L8.59688 157.05C4.76593 150.343 9.60844 142 17.3319 142H160.49C164.141 142 167.506 143.978 169.281 147.169L330.194 436.421C331.92 439.524 331.882 443.308 330.095 446.376L259.987 566.696C256.087 573.389 246.403 573.348 242.56 566.621Z" fill="white"/>
<path d="M796.236 146.704H948.813L1028.34 649.745H1067.18L1146.7 146.704H1299.28V169.822L1170.74 793.075L924.77 794L796.236 169.822V146.704ZM1345.25 146.704H1491.35V794H1345.25V146.704ZM1575.52 146.704H1721.62V660.842H1882.52V794H1575.52V146.704ZM1914.19 794V770.882L2042.73 146.704L2288.7 147.628L2417.24 770.882V794H2264.66L2241.54 646.971H2089.89L2066.77 794H1914.19ZM2109.31 519.361H2222.12L2185.13 285.41H2146.3L2109.31 519.361ZM2816.94 616.456C2816.94 656.527 2808.62 690.741 2791.97 719.099C2775.33 746.84 2752.21 768.108 2722.62 782.903C2693.65 797.699 2660.36 805.097 2622.75 805.097C2593.16 805.097 2565.42 801.398 2539.53 794C2514.25 787.219 2492.37 778.896 2473.87 769.033C2455.38 759.169 2441.82 750.847 2433.19 744.066V600.736H2451.68C2471.41 619.23 2495.45 635.567 2523.81 649.745C2552.17 663.308 2578.67 670.089 2603.33 670.089C2615.66 670.089 2626.45 668.24 2635.7 664.541C2645.56 660.225 2653.27 654.369 2658.82 646.971C2664.36 639.574 2667.14 630.943 2667.14 621.079C2667.14 605.051 2661.9 592.105 2651.42 582.242C2641.55 572.378 2625.83 561.282 2604.26 548.952L2539.53 511.964C2520.42 500.867 2501.62 487.613 2483.12 472.201C2464.63 456.79 2449.22 437.371 2436.89 413.945C2425.17 390.519 2419.32 361.544 2419.32 327.022C2419.32 285.718 2427.95 250.888 2445.21 222.53C2462.47 194.172 2485.28 172.904 2513.64 158.725C2542.61 143.93 2574.67 136.532 2609.81 136.532C2636.31 136.532 2660.67 139.306 2682.86 144.854C2705.05 149.786 2725.09 156.876 2742.96 166.123C2761.46 174.753 2776.87 185.233 2789.2 197.563V340.893H2770.71C2750.98 319.933 2727.86 303.288 2701.35 290.958C2675.46 278.012 2649.88 271.54 2624.6 271.54C2609.19 271.54 2595.94 275.547 2584.84 283.561C2574.36 290.958 2569.12 302.055 2569.12 316.85C2569.12 332.262 2576.21 345.824 2590.39 357.537C2604.57 369.25 2623.99 382.505 2648.64 397.3L2715.22 437.987C2736.18 450.933 2754.06 465.728 2768.86 482.373C2784.27 498.401 2795.98 517.512 2804 539.705C2812.63 561.282 2816.94 586.865 2816.94 616.456ZM3199.8 146.704V279.862H3011.16V416.719C3029.65 409.938 3048.76 404.698 3068.49 400.999C3088.22 396.683 3107.64 393.909 3126.75 392.676C3145.86 391.443 3163.74 391.752 3180.38 393.601V522.136L3171.13 527.684C3158.19 523.369 3143.08 520.903 3125.82 520.286C3109.18 519.67 3090.99 520.594 3071.27 523.06C3051.54 525.526 3031.5 530.15 3011.16 536.931V660.842H3199.8V794H2865.06V146.704H3199.8ZM3230.24 470.352C3230.24 392.06 3242.88 328.255 3268.16 278.937C3293.43 229.619 3326.41 193.556 3367.1 170.746C3408.4 147.32 3453.1 135.607 3501.18 135.607C3549.27 135.607 3593.65 147.32 3634.34 170.746C3675.64 193.556 3708.93 229.619 3734.21 278.937C3759.48 328.255 3772.12 392.06 3772.12 470.352C3772.12 548.644 3759.48 612.449 3734.21 661.767C3708.93 711.084 3675.64 747.456 3634.34 770.882C3593.65 793.692 3549.27 805.097 3501.18 805.097C3453.1 805.097 3408.4 793.692 3367.1 770.882C3326.41 747.456 3293.43 711.084 3268.16 661.767C3242.88 612.449 3230.24 548.644 3230.24 470.352ZM3381.89 470.352C3381.89 513.505 3387.13 549.569 3397.62 578.543C3408.1 607.517 3422.27 629.402 3440.15 644.197C3458.65 658.993 3478.99 666.39 3501.18 666.39C3523.38 666.39 3543.72 658.993 3562.21 644.197C3580.71 629.402 3595.19 607.517 3605.67 578.543C3616.77 549.569 3622.32 513.505 3622.32 470.352C3622.32 426.582 3616.77 390.21 3605.67 361.236C3594.58 332.262 3579.78 310.685 3561.29 296.507C3543.41 281.711 3523.38 274.314 3501.18 274.314C3478.99 274.314 3458.65 281.711 3440.15 296.507C3422.27 311.302 3408.1 333.187 3397.62 362.161C3387.13 391.135 3381.89 427.199 3381.89 470.352Z" fill="white"/>
</svg>
