<svg width="785" height="689" viewBox="0 0 785 689" fill="none" xmlns="http://www.w3.org/2000/svg">
<path d="M650.411 219.159H493.535C489.578 219.159 485.938 221.326 484.053 224.805L311.596 543.042C309.805 546.347 309.864 550.346 311.752 553.597L386.769 682.768C390.948 689.965 401.358 689.917 405.471 682.682L659.787 235.273C663.874 228.084 658.681 219.159 650.411 219.159Z" fill="white"/>
<path d="M326.611 139.813L258.877 15.9597C254.947 8.77266 260.148 0 268.34 0H773.489C781.802 0 786.99 9.00908 782.816 16.199L710.926 140.052C708.996 143.377 705.443 145.423 701.598 145.423H336.073C332.131 145.423 328.503 143.272 326.611 139.813Z" fill="white"/>
<path d="M252.264 455.23L1.43535 16.1344C-2.67176 8.94456 2.51982 0 10.8 0H164.277C168.192 0 171.799 2.12108 173.702 5.54188L346.215 315.645C348.066 318.972 348.025 323.028 346.109 326.317L270.947 455.31C266.766 462.486 256.384 462.442 252.264 455.23Z" fill="white"/>
</svg>
